<?xml version="1.0" standalone="no"?>
<!DOCTYPE svg PUBLIC "-//W3C//DTD SVG 20010904//EN"
 "http://www.w3.org/TR/2001/REC-SVG-20010904/DTD/svg10.dtd">
<svg version="1.0" xmlns="http://www.w3.org/2000/svg"
 width="1080.000000pt" height="1080.000000pt" viewBox="0 0 1080.000000 1080.000000"
 preserveAspectRatio="xMidYMid meet">

<g transform="translate(0.000000,1080.000000) scale(0.100000,-0.100000)"
fill="#000000" stroke="none">
<path d="M1660 8063 c-53 -9 -149 -45 -191 -72 -110 -69 -202 -202 -228 -329
-16 -75 -16 -4449 0 -4524 36 -172 169 -322 339 -380 l65 -23 3755 0 3755 0
75 28 c125 46 236 144 286 252 58 125 54 -29 52 2411 l-3 2239 -22 57 c-31 82
-66 138 -120 193 -58 58 -105 89 -192 123 l-66 27 -3740 1 c-2057 1 -3751 -1
-3765 -3z m4895 -561 c95 -44 144 -114 153 -217 9 -114 -50 -213 -153 -261
l-50 -24 -726 0 c-528 0 -735 3 -760 12 -92 31 -156 102 -179 198 -32 133 70
286 206 310 27 4 366 7 754 7 l705 -2 50 -23z m-2250 -6 c55 -25 110 -81 131
-132 8 -19 14 -67 14 -108 0 -61 -5 -83 -28 -126 -30 -58 -97 -112 -160 -130
-24 -6 -423 -10 -1153 -10 -1227 0 -1164 -3 -1242 61 -20 17 -49 52 -65 77
-23 41 -27 58 -27 127 0 62 5 89 22 121 28 53 78 102 128 125 38 18 91 19
1185 19 l1145 0 50 -24z m3835 0 c198 -102 199 -376 2 -473 -51 -25 -67 -28
-152 -27 -113 1 -167 21 -229 89 -123 134 -68 354 105 420 56 21 226 15 274
-9z m735 4 c168 -81 207 -299 75 -430 -64 -65 -123 -84 -244 -78 -104 5 -148
23 -208 85 -51 53 -68 99 -68 185 0 63 4 80 30 125 57 100 123 132 269 133 85
0 113 -4 146 -20z m-4584 -691 c178 -81 214 -317 68 -442 -81 -70 -21 -67
-1250 -67 -1088 0 -1109 0 -1162 20 -123 46 -193 170 -167 296 20 94 81 164
174 196 48 16 124 17 1176 15 1014 -2 1129 -4 1161 -18z m4385 -384 c91 -31
143 -63 205 -126 57 -59 101 -133 126 -214 17 -57 18 -127 18 -1355 0 -1226
-1 -1298 -18 -1355 -51 -167 -166 -284 -331 -340 l-75 -25 -1733 2 -1733 3
-75 36 c-151 73 -243 180 -286 334 -11 41 -14 274 -14 1345 0 1415 -3 1341 59
1457 60 112 162 196 291 240 l65 22 1713 1 1713 0 75 -25z m-4386 -316 c139
-63 200 -225 134 -357 -29 -58 -69 -96 -134 -126 -45 -21 -50 -21 -1165 -21
-924 0 -1128 2 -1168 14 -150 43 -227 231 -152 370 16 29 45 66 64 82 73 60
13 57 1246 58 1116 1 1131 0 1175 -20z m16 -701 c118 -62 171 -191 132 -320
-17 -56 -87 -131 -147 -157 l-50 -21 -1138 2 -1139 3 -49 26 c-99 50 -157 171
-136 278 19 96 97 182 188 207 38 10 275 13 1168 11 l1120 -2 51 -27z m15
-1910 c83 -49 128 -128 129 -230 0 -99 -55 -189 -146 -234 -38 -18 -74 -19
-1182 -22 -1095 -2 -1145 -1 -1185 16 -103 46 -161 133 -160 242 0 36 7 81 15
101 24 55 78 110 133 136 l50 23 1150 -3 1150 -2 46 -27z"/>
</g>
</svg>
