<?xml version="1.0" encoding="UTF-8"?>
<!DOCTYPE svg PUBLIC "-//W3C//DTD SVG 1.1//EN" "http://www.w3.org/Graphics/SVG/1.1/DTD/svg11.dtd">
<svg xmlns="http://www.w3.org/2000/svg" version="1.1" width="1080px" height="1080px" style="shape-rendering:geometricPrecision; text-rendering:geometricPrecision; image-rendering:optimizeQuality; fill-rule:evenodd; clip-rule:evenodd" xmlns:xlink="http://www.w3.org/1999/xlink">
<g><path style="opacity:0.988" fill="#323c4f" d="M 1079.5,377.5 C 1079.5,414.833 1079.5,452.167 1079.5,489.5C 1074.2,618.109 1061.7,746.443 1042,874.5C 1036.87,905.503 1030.2,936.169 1022,966.5C 1016.44,987.279 1006.94,1005.95 993.5,1022.5C 879.726,1048.62 764.56,1064.62 648,1070.5C 488.315,1074.74 328.815,1066.24 169.5,1045C 152.414,1042.8 135.414,1040.13 118.5,1037C 102.736,1025.23 91.5695,1010.07 85,991.5C 73.1738,958.196 63.8404,924.196 57,889.5C 27.4498,743.082 8.28318,595.748 -0.5,447.5C -0.5,417.5 -0.5,387.5 -0.5,357.5C 0.728981,336.809 4.56231,316.476 11,296.5C 16.6879,283.652 24.5212,272.319 34.5,262.5C 60.0064,238.424 87.6731,217.258 117.5,199C 225.919,133.124 339.252,76.7909 457.5,30C 481.577,20.6406 506.244,13.3073 531.5,8C 543.5,7.33333 555.5,7.33333 567.5,8C 602.25,15.2499 635.916,25.9166 668.5,40C 773.278,84.0427 872.612,137.376 966.5,200C 993.089,218.576 1017.92,239.41 1041,262.5C 1063.49,286.594 1075.49,315.261 1077,348.5C 1077.7,358.332 1078.53,367.999 1079.5,377.5 Z M 763.5,877.5 C 791.419,872.104 819.086,865.604 846.5,858C 893.144,730.955 912.311,599.788 904,464.5C 902.315,433.978 898.981,403.645 894,373.5C 794.362,283.723 680.528,217.056 552.5,173.5C 416.308,215.155 294.475,281.822 187,373.5C 173.255,514.813 185.588,653.813 224,790.5C 230.305,813.415 237.805,835.915 246.5,858C 273.32,865.288 300.32,871.788 327.5,877.5C 327.5,906.833 327.5,936.167 327.5,965.5C 274.984,961.482 222.65,955.815 170.5,948.5C 157.154,901.113 146.321,853.113 138,804.5C 116.059,681.143 101.559,556.977 94.5,432C 94.511,411.309 94.511,390.642 94.5,370C 95.3012,357.393 97.1345,344.893 100,332.5C 119.449,313.708 140.616,297.208 163.5,283C 260.052,223.579 361.052,172.246 466.5,129C 491.274,118.742 516.608,110.075 542.5,103C 547.167,102.333 551.833,102.333 556.5,103C 594.336,113.167 631.002,126.5 666.5,143C 756.582,183.02 841.916,230.687 922.5,286C 939.55,298.71 955.716,312.543 971,327.5C 974.432,331.364 977.099,335.698 979,340.5C 981.729,357.29 983.562,374.123 984.5,391C 984.405,554.643 970.905,717.476 944,879.5C 940.557,899.726 935.724,919.56 929.5,939C 874.578,950.209 819.244,958.709 763.5,964.5C 763.5,935.5 763.5,906.5 763.5,877.5 Z M 387.5,887.5 C 492.88,903.409 598.213,903.409 703.5,887.5C 703.5,915.167 703.5,942.833 703.5,970.5C 628.606,976.506 553.606,978.006 478.5,975C 448.141,973.919 417.808,972.419 387.5,970.5C 387.5,942.833 387.5,915.167 387.5,887.5 Z"/></g>
<g><path style="opacity:0.999" fill="#aec6e6" d="M 763.5,877.5 C 763.667,815.832 763.5,754.166 763,692.5C 754.758,650.159 731.591,618.993 693.5,599C 598.5,598.333 503.5,598.333 408.5,599C 365.932,615.91 339.432,646.743 329,691.5C 328.833,753.668 328.333,815.668 327.5,877.5C 300.32,871.788 273.32,865.288 246.5,858C 237.805,835.915 230.305,813.415 224,790.5C 185.588,653.813 173.255,514.813 187,373.5C 294.475,281.822 416.308,215.155 552.5,173.5C 680.528,217.056 794.362,283.723 894,373.5C 898.981,403.645 902.315,433.978 904,464.5C 912.311,599.788 893.144,730.955 846.5,858C 819.086,865.604 791.419,872.104 763.5,877.5 Z"/></g>
<g><path style="opacity:0.999" fill="#aec6e6" d="M 703.5,887.5 C 598.213,903.409 492.88,903.409 387.5,887.5C 387.333,824.499 387.5,761.499 388,698.5C 393.258,679.908 404.425,666.074 421.5,657C 506.5,656.333 591.5,656.333 676.5,657C 690.534,667.556 699.7,681.39 704,698.5C 704.832,761.668 704.665,824.668 703.5,887.5 Z"/></g>
</svg>
