<?xml version="1.0" encoding="utf-8"?>
<!-- Generator: Adobe Illustrator 27.9.0, SVG Export Plug-In . SVG Version: 6.00 Build 0)  -->
<svg version="1.1" id="katman_1" xmlns="http://www.w3.org/2000/svg" xmlns:xlink="http://www.w3.org/1999/xlink" x="0px" y="0px"
	 viewBox="0 0 1080 1080" style="enable-background:new 0 0 1080 1080;" xml:space="preserve">
<style type="text/css">
	.st0{fill:#1D1D1B;}
	.st1{opacity:0.5;fill:#B4A7FF;}
	.st2{opacity:0.5;fill:#87B8E4;}
</style>
<g>
	<path class="st0" d="M73.1,661.4"/>
	<path class="st1" d="M159.6,268.3c72.9-2,144.2,165.5,165.2,251.1c0.9,3.9,12.5,53.4,30.9,118.6c10.8,38.2,22.3,74,35,104.4
		c14.3,34.3,29.4,59.7,45.5,76.6c16.1,16.9,33.2,25.2,51.6,25.2c18.4,0,35.5-8.3,51.6-25.2c16.1-16.9,31.2-42.4,45.5-76.6
		c12.7-30.4,24.2-66.2,35-104.4c14.9-52.5,21.7-79,30.9-118.6c13.9-59.6,77-282.7,153.6-284.7c70.2-1.8,142.8,182.3,168.8,284.7
		c0.5,1.9,0.9,3.5,1.2,4.6L0,528.6c0,0,0-0.2,0-0.2C21.8,441.6,86.6,270.3,159.6,268.3z"/>
	<path class="st2" d="M173.4,298c25.3-61,55.7-102.1,95.8-102.1c40.2,0,70.5,41.1,95.8,102.1s45.5,141.9,65.4,221.4
		c10,39.9,20.1,80.4,30.9,118.6c12.7,44.7,21.4,72.3,35,104.4C522,803,556.9,885.2,597.1,884.1c35.4-0.9,62.2-65.9,93.5-141.8
		c14.5-35.2,24.1-65.5,35-104.4c20.1-71.9,24.2-95.8,30.9-118.6c22.2-75.8,91.3-202.6,168-199.7c73.4,2.8,134.8,123.8,154.4,199.7
		c0.5,1.9,0.9,3.5,1.2,4.6l-974.3,4.6C106.5,525.5,148.2,359,173.4,298z"/>
</g>
</svg>
